<?xml version="1.0" encoding="utf-8"?>
<!-- Generator: Adobe Illustrator 15.0.0, SVG Export Plug-In . SVG Version: 6.00 Build 0)  -->
<!DOCTYPE svg PUBLIC "-//W3C//DTD SVG 1.0//EN" "http://www.w3.org/TR/2001/REC-SVG-20010904/DTD/svg10.dtd">
<svg version="1.0" id="Calque_1" xmlns="http://www.w3.org/2000/svg" xmlns:xlink="http://www.w3.org/1999/xlink" x="0px" y="0px"
	 width="283.46px" height="283.46px" viewBox="0 0 283.46 283.46" enable-background="new 0 0 283.46 283.46" xml:space="preserve">
<g>
	<path fill="none" stroke="#514051" stroke-linecap="round" stroke-linejoin="round" stroke-miterlimit="10" d="M-1051.737-790.676
		c0,29.701-24.072,53.77-53.77,53.77c-29.694,0-53.77-24.069-53.77-53.77c0-29.694,24.076-53.77,53.77-53.77
		C-1075.81-844.446-1051.737-820.371-1051.737-790.676z"/>
	<g>
		<polyline fill="none" stroke="#514051" stroke-linecap="round" stroke-linejoin="round" stroke-miterlimit="10" points="
			-1112.543,-811.47 -1091.748,-790.676 -1112.543,-769.883 		"/>
	</g>
</g>
<g>
	<g>
		<path fill="none" stroke="#514051" stroke-linecap="round" stroke-linejoin="round" stroke-miterlimit="10" d="M-481.893-844.446
			c29.702,0,53.77,24.072,53.77,53.77c0,29.694-24.068,53.77-53.77,53.77c-29.694,0-53.768-24.076-53.768-53.77
			C-535.661-820.374-511.587-844.446-481.893-844.446z"/>
	</g>
	<g>
		<polyline fill="none" stroke="#514051" stroke-linecap="round" stroke-linejoin="round" stroke-miterlimit="10" points="
			-502.687,-783.639 -481.893,-804.436 -461.099,-783.639 		"/>
	</g>
</g>
<g>
	<path fill="none" stroke="#514051" stroke-linecap="round" stroke-linejoin="round" stroke-miterlimit="10" d="M-170.084-736.907
		c-29.7,0-53.77-24.072-53.77-53.77c0-29.694,24.069-53.77,53.77-53.77c29.694,0,53.771,24.076,53.771,53.77
		C-116.313-760.979-140.39-736.907-170.084-736.907z"/>
	<g>
		<polyline fill="none" stroke="#514051" stroke-linecap="round" stroke-linejoin="round" stroke-miterlimit="10" points="
			-149.29,-797.714 -170.084,-776.917 -190.878,-797.714 		"/>
	</g>
</g>
<g>
	<path fill="none" stroke="#514051" stroke-linecap="round" stroke-linejoin="round" stroke-miterlimit="10" d="M-427.437-478.924
		c0,29.695-24.056,53.754-53.766,53.754c-29.688,0-53.765-24.06-53.765-53.754c0-29.7,24.078-53.76,53.765-53.76
		C-451.492-532.685-427.437-508.625-427.437-478.924z"/>
	<polyline fill="none" stroke="#514051" stroke-linecap="round" stroke-linejoin="round" stroke-miterlimit="10" points="
		-462.654,-491.023 -486.823,-466.838 -499.741,-479.76 	"/>
</g>
<g>
	<path fill="none" stroke="#514051" stroke-linecap="round" stroke-linejoin="round" stroke-miterlimit="10" d="M-1052.159-478.23
		c0,29.457-23.887,53.325-53.344,53.325s-53.356-23.868-53.356-53.325c0-29.476,23.899-53.344,53.356-53.344
		S-1052.159-507.706-1052.159-478.23z"/>
	
		<line fill="none" stroke="#514051" stroke-linecap="round" stroke-linejoin="round" stroke-miterlimit="10" x1="-1128.643" y1="-478.23" x2="-1081.37" y2="-478.23"/>
	
		<line fill="none" stroke="#514051" stroke-linecap="round" stroke-linejoin="round" stroke-miterlimit="10" x1="-1105.014" y1="-454.594" x2="-1105.014" y2="-501.854"/>
</g>
<g>
	<path fill="none" stroke="#514051" stroke-linecap="round" stroke-linejoin="round" stroke-miterlimit="10" d="M-739.938-479.045
		c0,29.683-24.06,53.738-53.75,53.738c-29.683,0-53.772-24.055-53.772-53.738c0-29.698,24.089-53.752,53.772-53.752
		C-763.999-532.797-739.938-508.743-739.938-479.045z"/>
	
		<line fill="none" stroke="#514051" stroke-linecap="round" stroke-linejoin="round" stroke-miterlimit="10" x1="-817.008" y1="-479.045" x2="-769.367" y2="-479.045"/>
</g>
<g>
	<path fill="none" stroke="#514051" stroke-linecap="round" stroke-linejoin="round" stroke-miterlimit="10" d="M-116.082-478.234
		c0,29.816-24.171,53.977-53.99,53.977c-29.817,0-54.005-24.161-54.005-53.977c0-29.83,24.188-53.989,54.005-53.989
		C-140.253-532.223-116.082-508.063-116.082-478.234z"/>
	<g>
		
			<line fill="none" stroke="#514051" stroke-linecap="round" stroke-linejoin="round" stroke-miterlimit="10" x1="-186.483" y1="-495.146" x2="-152.645" y2="-461.315"/>
		
			<line fill="none" stroke="#514051" stroke-linecap="round" stroke-linejoin="round" stroke-miterlimit="10" x1="-186.483" y1="-461.315" x2="-152.656" y2="-495.14"/>
	</g>
</g>
<g>
	<path fill="none" stroke="#514051" stroke-linecap="round" stroke-linejoin="round" stroke-miterlimit="10" d="M-1051.737-790.676
		c0,29.701-24.072,53.77-53.77,53.77c-29.694,0-53.77-24.069-53.77-53.77c0-29.694,24.076-53.77,53.77-53.77
		C-1075.81-844.446-1051.737-820.371-1051.737-790.676z"/>
	<g>
		<polyline fill="none" stroke="#514051" stroke-linecap="round" stroke-linejoin="round" stroke-miterlimit="10" points="
			-1112.543,-811.47 -1091.748,-790.676 -1112.543,-769.883 		"/>
	</g>
</g>
<g>
	<path fill="none" stroke="#514051" stroke-linecap="round" stroke-linejoin="round" stroke-miterlimit="10" d="M-739.927-790.676
		c0,29.701-24.072,53.77-53.77,53.77c-29.694,0-53.77-24.069-53.77-53.77c0-29.694,24.076-53.77,53.77-53.77
		C-764-844.446-739.927-820.371-739.927-790.676z"/>
	<g>
		<polyline fill="none" stroke="#514051" stroke-linecap="round" stroke-linejoin="round" stroke-miterlimit="10" points="
			-800.733,-811.47 -779.938,-790.676 -800.733,-769.883 		"/>
	</g>
</g>
<g>
	<path fill="none" stroke="#514051" stroke-linecap="round" stroke-linejoin="round" stroke-miterlimit="10" d="M103.432-491.418
		c0,0-9.575,13.884-20.587,13.884v18.671c0,0,14.84,16.756,30.64,18.193v16.277h20.587v-10.056h19.627v10.056h20.587v-10.534
		c0,0,17.233-12.446,17.233-39.736c0-27.286-30.162-44.523-73.725-30.639c-10.535-0.956-19.149-4.91-19.149-4.91
		S95.772-498.121,103.432-491.418z"/>
	<path fill="none" stroke="#514051" stroke-linecap="round" stroke-linejoin="round" stroke-miterlimit="10" d="M125.042-508.429
		c-0.251-1.312-0.387-2.667-0.387-4.054c0-11.634,9.43-21.065,21.064-21.065c11.634,0,21.064,9.431,21.064,21.065
		c0,1.337-0.122,2.649-0.363,3.917"/>
	
		<line fill="none" stroke="#514051" stroke-linecap="round" stroke-linejoin="round" stroke-miterlimit="10" x1="118.034" y1="-477.534" x2="118.034" y2="-477.534"/>
	<path fill="none" stroke="#514051" stroke-linecap="round" stroke-linejoin="round" stroke-miterlimit="10" d="M96.841-447.064
		c0,0,9.703-1.747,12.334-9.406"/>
	<path fill="none" stroke="#514051" stroke-linecap="round" stroke-linejoin="round" stroke-miterlimit="10" d="M191.001-480.64
		c0,0,7.939,4.78,9.614-2.401"/>
</g>
<g>
	<g>
		<path fill="none" stroke="#514051" stroke-linecap="round" stroke-linejoin="round" stroke-miterlimit="10" d="M189.231-821.101
			c0-6.249-2.597-12.498-7.791-17.268c-9.236-8.472-24.203-8.472-33.438,0l-6.271,5.756l-6.278-5.756
			c-9.23-8.472-24.2-8.472-33.431,0c-5.197,4.77-7.794,11.016-7.794,17.265"/>
	</g>
	<path fill="none" stroke="#514051" stroke-linecap="round" stroke-linejoin="round" stroke-miterlimit="10" d="M189.231-821.101
		c0,20.434-8.313,30.327-12.768,41.708c-4.451,11.38-5.937,42.385-15.834,42.385c-6.47,0-8.708-13.323-9.484-22.55
		c-0.41-4.885-4.513-8.622-9.417-8.622l0,0c-4.905,0-9.004,3.737-9.418,8.622c-0.776,9.227-3.015,22.55-9.483,22.55
		c-9.898,0-11.381-31.005-15.835-42.385c-4.454-11.381-12.764-21.274-12.764-41.708"/>
	
		<line fill="none" stroke="#514051" stroke-linecap="round" stroke-linejoin="round" stroke-miterlimit="10" x1="141.731" y1="-832.613" x2="135.482" y2="-826.361"/>
</g>
<g>
	<path fill="none" stroke="#514051" stroke-linecap="round" stroke-linejoin="round" stroke-miterlimit="10" d="M-1061.72-170.078
		c0,23.696-19.205,42.9-42.9,42.9s-42.9-19.204-42.9-42.9s19.205-42.9,42.9-42.9S-1061.72-193.774-1061.72-170.078z"/>
	<path fill="none" stroke="#514051" stroke-linecap="round" stroke-linejoin="round" stroke-miterlimit="10" d="M-1065.879-189.118
		c9.332,1.833,15.401,5.294,16.173,10.043c1.658,10.179-21.584,22.435-51.91,27.375c-30.332,4.945-56.26,0.702-57.918-9.476
		c-0.775-4.753,3.88-9.96,12.151-14.659"/>
</g>
<g>
	<g>
		<path fill="none" stroke="#514051" stroke-linecap="round" stroke-linejoin="round" stroke-miterlimit="10" d="M-741.948-163.38
			c0,27.999-22.701,50.685-50.695,50.685c-27.998,0-50.692-22.686-50.692-50.685c0-28.01,22.694-50.706,50.692-50.706
			C-764.649-214.086-741.948-191.39-741.948-163.38z"/>
	</g>
	<polyline fill="none" stroke="#514051" stroke-linecap="round" stroke-linejoin="round" stroke-miterlimit="10" points="
		-792.644,-193.893 -792.644,-163.38 -772.389,-163.38 	"/>
	
		<line fill="none" stroke="#514051" stroke-linecap="round" stroke-linejoin="round" stroke-miterlimit="10" x1="-758.631" y1="-125.796" x2="-749.917" y2="-113.256"/>
	
		<line fill="none" stroke="#514051" stroke-linecap="round" stroke-linejoin="round" stroke-miterlimit="10" x1="-828.326" y1="-125.796" x2="-837.048" y2="-113.256"/>
	<g>
		<g>
			<path fill="none" stroke="#514051" stroke-linecap="round" stroke-linejoin="round" stroke-miterlimit="10" d="M-772.972-211.199
				c0.549-0.72,1.154-1.419,1.815-2.08c7.934-7.927,20.777-7.927,28.704,0c7.927,7.927,7.927,20.777,0,28.704
				c-0.68,0.685-1.397,1.307-2.144,1.871"/>
		</g>
		<g>
			<path fill="none" stroke="#514051" stroke-linecap="round" stroke-linejoin="round" stroke-miterlimit="10" d="M-842.865-182.76
				c-0.721-0.549-1.419-1.154-2.081-1.815c-7.927-7.934-7.927-20.777,0-28.704c7.928-7.927,20.778-7.927,28.705,0
				c0.684,0.68,1.307,1.397,1.871,2.145"/>
		</g>
	</g>
</g>
<g>
	<polygon fill="none" stroke="#514051" stroke-linecap="round" stroke-linejoin="round" stroke-miterlimit="10" points="
		-463.397,-126.513 -552.35,-178.829 -423.901,-218.333 -423.901,-218.333 	"/>
	<polyline fill="none" stroke="#514051" stroke-linecap="round" stroke-linejoin="round" stroke-miterlimit="10" points="
		-423.901,-218.333 -507.872,-152.671 -507.872,-116.157 -487.642,-140.769 	"/>
</g>
<g>
	<g>
		
			<line fill="none" stroke="#514051" stroke-linecap="round" stroke-linejoin="round" stroke-miterlimit="10" x1="-180.587" y1="-165.957" x2="-180.587" y2="-113.254"/>
		
			<line fill="none" stroke="#514051" stroke-linecap="round" stroke-linejoin="round" stroke-miterlimit="10" x1="-162.382" y1="-113.254" x2="-198.798" y2="-113.254"/>
	</g>
	<path fill="none" stroke="#514051" stroke-linecap="round" stroke-linejoin="round" stroke-miterlimit="10" d="M-221.888-205.891
		v6.684c0,7.279,5.902,13.18,13.18,13.18h8.254l0,0c0,10.971,8.896,19.861,19.867,19.861s19.861-8.891,19.861-19.861l0,0h8.254
		c7.281,0,13.184-5.9,13.184-13.18v-6.684H-221.888z"/>
	<path fill="none" stroke="#514051" stroke-linecap="round" stroke-linejoin="round" stroke-miterlimit="10" d="M-160.304-205.891
		c0-11.605,9.406-21.016,21.016-21.016c11.605,0,21.016,9.41,21.016,21.016s-9.41,21.016-21.016,21.016
		c-2.635,0-5.148-0.482-7.471-1.365"/>
	
		<line fill="none" stroke="#514051" stroke-linecap="round" stroke-linejoin="round" stroke-miterlimit="10" x1="-139.288" y1="-205.891" x2="-139.288" y2="-226.906"/>
	
		<line fill="none" stroke="#514051" stroke-linecap="round" stroke-linejoin="round" stroke-miterlimit="10" x1="-139.288" y1="-205.891" x2="-118.272" y2="-205.891"/>
	
		<line fill="none" stroke="#514051" stroke-linecap="round" stroke-linejoin="round" stroke-miterlimit="10" x1="-154.438" y1="-220.447" x2="-124.755" y2="-190.768"/>
	
		<line fill="none" stroke="#514051" stroke-linecap="round" stroke-linejoin="round" stroke-miterlimit="10" x1="-139.288" y1="-205.891" x2="-124.743" y2="-220.436"/>
	
		<line fill="none" stroke="#514051" stroke-linecap="round" stroke-linejoin="round" stroke-miterlimit="10" x1="-220.31" y1="-195.387" x2="-140.87" y2="-195.387"/>
</g>
<g>
	<path fill="none" stroke="#514051" stroke-linecap="round" stroke-linejoin="round" stroke-miterlimit="10" d="M141.729-113.245
		L141.729-113.245c-13.145,0-23.799-10.656-23.799-23.799v-60.4c0-13.145,10.654-23.801,23.799-23.801l0,0
		c13.145,0,23.801,10.656,23.801,23.801v60.4C165.53-123.901,154.874-113.245,141.729-113.245z"/>
	
		<line fill="none" stroke="#514051" stroke-linecap="round" stroke-linejoin="round" stroke-miterlimit="10" x1="117.931" y1="-167.245" x2="165.53" y2="-167.245"/>
	<path fill="none" stroke="#514051" stroke-linecap="round" stroke-linejoin="round" stroke-miterlimit="10" d="M125.64-197.093
		c0-8.885,7.205-16.09,16.09-16.09"/>
</g>
<g>
	<path fill="none" stroke="#514051" stroke-linecap="round" stroke-linejoin="round" stroke-miterlimit="10" d="M-1140.289,151.626
		c0-19.215,15.568-34.785,34.78-34.785c19.21,0,34.785,15.57,34.785,34.785"/>
	<g>
		
			<line fill="none" stroke="#514051" stroke-linecap="round" stroke-linejoin="round" stroke-miterlimit="10" x1="-1105.509" y1="85.207" x2="-1105.509" y2="100.835"/>
	</g>
	<g>
		
			<line fill="none" stroke="#514051" stroke-linecap="round" stroke-linejoin="round" stroke-miterlimit="10" x1="-1168.021" y1="153.58" x2="-1042.997" y2="153.58"/>
	</g>
	<g>
		
			<line fill="none" stroke="#514051" stroke-linecap="round" stroke-linejoin="round" stroke-miterlimit="10" x1="-1160.383" y1="175.915" x2="-1050.636" y2="175.915"/>
	</g>
	<g>
		
			<line fill="none" stroke="#514051" stroke-linecap="round" stroke-linejoin="round" stroke-miterlimit="10" x1="-1146.953" y1="198.251" x2="-1064.07" y2="198.251"/>
	</g>
	<g>
		
			<line fill="none" stroke="#514051" stroke-linecap="round" stroke-linejoin="round" stroke-miterlimit="10" x1="-1152.476" y1="104.662" x2="-1141.424" y2="115.712"/>
	</g>
	<g>
		
			<line fill="none" stroke="#514051" stroke-linecap="round" stroke-linejoin="round" stroke-miterlimit="10" x1="-1069.594" y1="115.712" x2="-1058.543" y2="104.662"/>
	</g>
</g>
<g>
	<path fill="none" stroke="#514051" stroke-linecap="round" stroke-linejoin="round" stroke-miterlimit="10" d="M-810.841,114.273
		c5.3,5.299,7.468,12.53,6.556,19.43c6.898-0.913,14.126,1.252,19.43,6.552c5.296,5.3,7.463,12.524,6.545,19.423
		c6.903-0.912,14.13,1.253,19.43,6.553c4.396,4.395,6.634,10.118,6.757,15.871c17.369-20.817,16.306-51.81-3.232-71.352
		c-19.541-19.537-50.537-20.599-71.352-3.234C-820.953,107.643-815.235,109.879-810.841,114.273z"/>
	<path fill="none" stroke="#514051" stroke-linecap="round" stroke-linejoin="round" stroke-miterlimit="10" d="M-784.855,140.255
		l-44.692,44.69c-4.224,4.225-11.001,4.374-15.052,0.318c-4.051-4.047-3.906-10.825,0.319-15.049"/>
	<path fill="none" stroke="#514051" stroke-linecap="round" stroke-linejoin="round" stroke-miterlimit="10" d="M-804.285,133.703
		c0,0,23.035-22.891,48.93-22.953"/>
	<path fill="none" stroke="#514051" stroke-linecap="round" stroke-linejoin="round" stroke-miterlimit="10" d="M-778.305,159.685
		c0,0,22.89-23.038,22.952-48.929"/>
</g>
<g>
	<path fill="none" stroke="#514051" stroke-linecap="round" stroke-linejoin="round" stroke-miterlimit="10" d="M-460.269,159.076
		c0,11.941-9.677,21.625-21.616,21.625"/>
	<g>
		<path fill="none" stroke="#514051" stroke-linecap="round" stroke-linejoin="round" stroke-miterlimit="10" d="M-520.807,159.076
			c0-21.495,38.922-67.952,38.922-67.952s38.913,46.457,38.913,67.952c0,21.5-17.428,38.93-38.913,38.93
			C-503.385,198.006-520.807,180.576-520.807,159.076z"/>
	</g>
</g>
<g>
	<path fill="none" stroke="#514051" stroke-linecap="round" stroke-linejoin="round" stroke-miterlimit="10" d="M-140.249,118.931
		c-0.041,0-0.078,0.013-0.119,0.013c-0.131-16.337-13.404-29.547-29.775-29.547c-16.365,0-29.635,13.202-29.773,29.537
		c-4.512,0.003-8.168,3.29-8.168,7.341c0,4.058,3.664,7.344,8.178,7.344c0.83,0,1.617-0.148,2.371-0.354
		c1.559,6.307,7.934,11.031,15.566,11.031c4.734,0,8.975-1.825,11.891-4.708c2.92,2.883,7.158,4.708,11.893,4.708
		c7.633,0,14.008-4.725,15.566-11.031c0.754,0.205,1.539,0.354,2.371,0.354c4.516,0,8.176-3.286,8.176-7.344
		C-132.073,122.22-135.733,118.931-140.249,118.931z"/>
	<path fill="none" stroke="#514051" stroke-linecap="round" stroke-linejoin="round" stroke-miterlimit="10" d="M-189.899,142.428
		l16.953,55.229c0.85,2.768,4.77,2.771,5.625,0.003l17.064-55.231"/>
	<path fill="none" stroke="#514051" stroke-linecap="round" stroke-linejoin="round" stroke-miterlimit="10" d="M-140.368,118.943
		c0,0-8.871,11.004-29.711,11.004"/>
	
		<line fill="none" stroke="#514051" stroke-linecap="round" stroke-linejoin="round" stroke-miterlimit="10" x1="-183.653" y1="162.771" x2="-152.741" y2="150.475"/>
	
		<line fill="none" stroke="#514051" stroke-linecap="round" stroke-linejoin="round" stroke-miterlimit="10" x1="-178.39" y1="179.624" x2="-159.415" y2="172.071"/>
</g>
<g>
	<g>
		<g>
			<path fill="none" stroke="#514051" stroke-linecap="round" stroke-linejoin="round" stroke-miterlimit="10" d="M145.671,197.129
				h-7.883c-2.189,0-3.967-1.773-3.967-3.965v-34.127c0-2.189,1.777-3.969,3.967-3.969h7.883c2.191,0,3.969,1.779,3.969,3.969
				v34.127C149.64,195.355,147.862,197.129,145.671,197.129z"/>
		</g>
	</g>
	<path fill="none" stroke="#514051" stroke-linecap="round" stroke-linejoin="round" stroke-miterlimit="10" d="M141.729,155.068
		l-15.968-46.344c-3.779-10.969,4.371-22.393,15.968-22.393l0,0c11.601,0,19.746,11.424,15.969,22.393L141.729,155.068z"/>
	<path fill="none" stroke="#514051" stroke-linecap="round" stroke-linejoin="round" stroke-miterlimit="10" d="M141.729,155.068
		l-6.861-46.344c-1.623-10.969,1.878-22.393,6.861-22.393l0,0c4.982,0,8.486,11.424,6.861,22.393L141.729,155.068z"/>
</g>
</svg>
